<?xml version="1.0" standalone="no"?>
<!DOCTYPE svg PUBLIC "-//W3C//DTD SVG 20010904//EN"
 "http://www.w3.org/TR/2001/REC-SVG-20010904/DTD/svg10.dtd">
<svg version="1.0" xmlns="http://www.w3.org/2000/svg"
 width="70.000000pt" height="70.000000pt" viewBox="0 0 70.000000 70.000000"
 preserveAspectRatio="xMidYMid meet">
<metadata>
Created by potrace 1.14, written by Peter Selinger 2001-2017
</metadata>
<g transform="translate(0.000000,70.000000) scale(0.100000,-0.100000)"
fill="#000000" stroke="none">
<path d="M0 350 l0 -350 350 0 350 0 0 350 0 350 -350 0 -350 0 0 -350z m568
208 c36 -58 33 -67 -27 -89 -85 -29 -159 -78 -232 -150 -80 -79 -99 -109 -71
-109 40 0 261 88 294 117 9 8 22 12 28 8 18 -11 42 -74 35 -94 -11 -35 -234
-125 -342 -138 -44 -5 -57 -2 -74 13 -28 25 -69 90 -69 109 0 57 109 192 213
264 56 38 185 101 208 101 10 0 26 -15 37 -32z"/>
</g>
</svg>
